<?xml version="1.0" encoding="UTF-8"?>
<svg version="1.1" viewBox="0 0 2000 1100" width="500" height="275" xmlns="http://www.w3.org/2000/svg">
<path transform="translate(0)" d="m0 0h2e3v1100h-2e3z" fill="#FCFCFC"/>
<path transform="translate(1396,708)" d="m0 0h12l18 3 18 7 11 6 11 9 8 9 8 16 4 11 4 14 1 6v32l-3 23-7 18-6 10-9 10-2 3h-2l-2 4-10 6-15 7-13 4-11 2h-24l-15-3-16-7-12-6-6-5-12-17-9-17-5-17-3-24 2-26 4-17 7-16 7-11 11-12 16-11 12-5 14-4z" fill="#C1943B"/>
<path transform="translate(1101,199)" d="m0 0 2 1 8 26 9 37 2 13v27l-3 16-6 21-8 18-9 16-11 13-14 15-12 11-14 11-14 10-14 9-23 14-27 16-23 12-24 14-25 14-21 13-19 13-19 14-9 7-20 18-3 4h-2l-2 4-7 7-13 18-8 13-4 5 1-8 5-15 9-20 12-21 8-11 10-13 9-10 7-8 8-7 14-12 12-10 20-14 15-10 11-7 24-15 21-13 10-7 11-7 12-8 16-11 16-13 13-11 8-8 9-11 8-8 8-11 9-16 11-23 6-18 5-21 3-26z" fill="#040304"/>
<path transform="translate(1392,714)" d="m0 0h18l12 4 7 6 6 10 4 10 4 19 2 20v50l-2 21-4 25-2 4-5 2v7l-12 8-12 3h-12l-13-3-9-6-7-8-4-11-5-25-1-16v-49l2-19 5-25 6-14 6-7 11-5z" fill="#FDFCFC"/>
<path transform="translate(261,712)" d="m0 0h67l4 2-2 3-9 2-1 2-1 82 8-6 14-14 8-7 3-1 2-4 8-8h2l2-4 5-4 4-2 11-12 5-6h2l2-5 7-10h3l6-5 4 1-5 6-8 7-35 35-7 8-5 4-3 5-1 3 6 10 19 28 13 17 24 36 9 12 5 7 12 6 1 4h-53l-18-1 1-4 7-4-1-7-12-17-13-19-9-12-13-18-6-9-3-6v88l12 5 2 3-5 1h-67l-2-1v-3l15-5v-176l-10-2-6-2v-2z" fill="#C1943B"/>
<path transform="translate(812,709)" d="m0 0h36l18 4 17 7 1 1 2 33-1 3-4-2-5-4-8-16-7-13-12-6-5-1h-22l-13 4-9 5-6 5-7 10-6 14-5 19-2 17v28l2 26 5 21 6 16 2 3 2 6 6 3 8 5 15 5h16l11-1v-43l-1-32-4-4 1-2h2l-1-2-21-5-1-2 82-1v4l-11 2-2 25v46l-2 6-17 9-19 5-15 1h-27l-18-4-20-7-16-9-10-12-10-16-6-13-2-11-1-1-3-26v-10l2-15 3-12 7-16 8-12 8-9 13-10 9-6 5-2 11-4z" fill="#C1943B"/>
<path transform="translate(557,712)" d="m0 0h29l5 2 6 7 8 11 10 13 12 17 10 13 7 8 8 11 9 12 10 14 15 20 1-1v-111l-2-7-4-2-9-2-2-1v-2l2-1 12-1h14l10 1-5 5-7 1-1 1-1 14v169l-1 2-10-1-3-1h-5l-16-23-10-15-8-11-12-14-14-20-9-13-11-14-11-16-15-21v-2h-2l1 142 6 1 7 3 5 2v1l-17 1-27-1-1-2 4-3 11-2h4v-143l-2-14-7-12-12-12v-2z" fill="#C0933A"/>
<path transform="translate(1509,713)" d="m0 0h49l8 11 13 17 14 19 13 17 12 17 14 19 13 17 8 11 2 1-2-112-1-9-2-2-16-4-1-2h39l3 1v4l-13 1-1 7v178l-15 1-8-9-12-17-14-19-18-24v-2h-2l-11-16-8-12-11-15-7-9-9-12-10-14-1-2v142l6 1 9 4 2 2h-40l-7-1 2-2 19-5 1-5v-142l-2-8-7-12v-2h-2l-8-12z" fill="#C1943B"/>
<path transform="translate(938,185)" d="m0 0h20l-2 2-28 13-4 3-18 8-16 8-10 4-11 1-15-2h-12l-11 7-16 13-18 14-17 14-28 22-13 11-12 9v9l1 8v11l1 3 45 20 34 16 6 3-2 1-28-5-48-9-4-1 3 15 5 37v5l21-2 78-5 8-1 2-7 13-16 26-34 11-14 10-13 8-11 13-16 5-7 1-3h2l-2 5-9 16-13 22-12 19-13 20-13 22-10 17-9 14-3 5-6 1-59 1h-62l-3-23-10-81-3-18-5-13-4-9-3-5v-7l47-1 9-5 28-24 10-9 8-6 4-4 11-9 7-7 10-8 14-12 6-5 8-2 27-2z" fill="#040304"/>
<path transform="translate(1044,708)" d="m0 0h18l14 2 14 4 12 5 3 3v25l-1 10-2 2-8-13-6-11-9-13-12-6-6-1h-16l-10 3-7 5-6 9-3 8v11l3 10 5 8 10 8 14 8 24 11 13 7 8 6 5 6 4 4 7 14 2 10v19l-4 13-6 9-7 8-16 9-11 4-23 3h-15l-19-2-20-6-3-2-9-2-1-3 1-31 2-7 3 3 9 19 6 7 4 6 8 7 10 4 4 1h26l9-5h2l2-4 5-5 4-11v-15l-3-11-5-6-13-9-33-16-18-12-12-12-7-12-1-5v-27l3-11 8-12 7-6 10-6 8-4 16-4z" fill="#C1943B"/>
<path transform="translate(1756,712)" d="m0 0h69l7 1 1 35 1 11-3-1-8-16-8-15-4-7-18-1h-41v83h42l-1-4 5-12 5-2h3v26l-1 19-5-1-3-8-3-5-2-3v-4h-40v75l-1 15 65-1 6-1 3-11 4-10 3-8 4-10 2-1v35l-1 12-83 1-58-1 1-5 10-1v-178h-10l-2-1v-4l8-1z" fill="#C1943B"/>
<path transform="translate(1154,268)" d="m0 0h2l6 18 4 17 3 25v15l-3 25-7 21-5 11-8 14-10 15-9 11-9 10-12 13-4 2v2l-8 7-10 9-11 9-13 11-17 14-15 13-15 14-15 15-9 11-8 11-8 16-5 16-1 5h-3v-21l2-22 4-15 8-18 8-14 9-11 12-13 4-5h2v-2l8-7 13-12 11-9 10-9 11-9 16-15 5-5h2l2-4 11-11 9-11 11-15 8-13 6-12 8-22 7-27 2-15z" fill="#040304"/>
<path transform="translate(1260,712)" d="m0 0h34l3 2 1 23v25h-2l-3-7-8-13-10-16-6-6-33-1 1 177 10 1 2 2 12 2 2 2-36 1h-30l-32-1 3-2 16-4 3-7h2l1-5v-165h-37l-2 7-11 17-8 15h-2l-1 2v-43l2-5z" fill="#C1943B"/>
<path transform="translate(458,712)" d="m0 0h61l4 1-2 4-9 5-2 10v130l1 35 10 1 3 3v2l-7 1h-54l-12-1 1-4 12-4v-131l-1-45-10-2-3-3 1-1z" fill="#C1943B"/>
<path transform="translate(1144,149)" d="m0 0 10 3 12 6 10 7 11 10 5 5 8 11 10 16 10 25 6 25 4 21 3 31 1 25v23l-3 43-4 40-6 40-10 52-5 17h-1l6-72 2-48v-29l-1-31-3-38-7-49-5-24-7-27-8-21-13-28-10-16-15-15z" fill="#040304"/>
<path transform="translate(1057,84)" d="m0 0h34l28 3 26 6 17 6 16 8 13 8 10 8 10 9 5 4 9 11 9 13 8 13 8 17 7 21 7 33 3 27 1 16v11h-2l-3-13-8-36-5-17-11-26-8-15-10-15-8-10-9-10-9-9-15-10-16-9-15-6-24-6-8-1-38-1-5-6-10-13-7-8z" fill="#040304"/>
<path transform="translate(1250,709)" d="m0 0 46 1 3 4 1 44-1 6 5-2 3 2v2h2l2 7 5-12 4-8-4-2 8-10 9-4-2 4-7 10-6 13-4 12-3 18-1 18 3 24 5 17 10 19 9 12 5 5 5 4 16 7 12 5 12 2h24l18-4 15-6 13-7 7-6 7-8 7-10 5-11 4-11 3-23v-32l-3-14-5-15-8-16-3-4 1-2 4 4 7 12 4 5 5 11 4 16 1 15-1 14-2 3-1 4 1 12-2 15-4 9-3 6-3 5-4 1v2l-2 2 9-2 4-8h3l-1 9-6 8-4-1-2 2h-5l-1 5-7 6-4 1-6 1-1 2-5 4-3 1-2 5 7 1 12-1 7-1-2 3-11 2h-27l-5-1h-31l-19-1-7-1v-2h-15l-4 5-7 1-2-2 1-5 3-1 1-2h2l-11-9h-2l-2-6 1-1-6-9v-2l-3-1v-2l-3-1-2-4-1 4-7-1-3-3-2-16-1-3v-34l1-7v-8l-2-10-1-2 1-3-4-1-3-10-2-10-2-1-2-4v-2l-2-1-4-3v-2h-2l-4-6-6-10-2-1-4-11-12-2v2l-10 2-2-2-6-1v20l2 10-1 3-1 17v94l3 9 1 2v6l-2 4 4 2 1 1v7l2 1-10-1-1-21v-156h33l8 8 9 15 8 13 2 7h2l-1-5v-27l-1-16-2-1h-34l-129 1-1 4v41h2l2-6 8-14 9-14 2-5 2-1h35l1 1v165l-2 5-2 1-2 6-3 2-10 1-2-2 8-9-5 4 1-5 3-2 3-16 3-9 3-17 1-2v-11l2-46 1-64h-22l-9 1-2 1-1 11-5 14-2 6h-4l-6-2-4 10-1 2-7-1-1-5v-25l-5 3-3 2-3-4 5-2 2-3 5-1v-5h-2l1-9-12 2-2 1 2-5 16-1 1-1h58l11 1 21-1h13z" fill="#FEFCF0"/>
<path transform="translate(906,422)" d="m0 0h3l-2 5-16 16-8 7-12 12-11 9-20 15-15 10-22 15-28 21-11 10-5 5-9 8-7 8-12 12-9 12-8 10-4 6-1-3 9-20 9-16 13-19 12-16 9-10 7-8 12-11 11-9 10-8 19-13 17-11 14-8 19-10 18-10 15-8z" fill="#040304"/>
<path transform="translate(1028,722)" d="m0 0h2l-1 5 1 2-6 5-3 6v7l3 3-1 2-2-2 1 5 2 5h2v2l9 2 9 8 3 2 1 6h2l1-4 5 7 6 5 4 2 9 4 22 12 9 6 7 5 2 3 2 10v29h-2l1 7v23l-4 6-3 9h5l4 3v3h-5l-6-4 1-3h-2v-7l-2-1-2 5-5 1-3 1 4 2-9 1-2 7-5-1-2-4h-5l-5 2-10 1h-22l-17-1-14 1-8-2v-3l-4 4 5 1-3 2-12-1-3-2 4-1 1-5-7-1-2-7v-11l2-27 2-7 4 2 7 12 6 12 6 10 9 10 11 3 7 1v1h20l10-6 3-4 2-10 1-11h1v14l3-6v-14l-1-4-2 6h-1v-7l-5-2-4-6-2-4-7-5-11-4-3-2-9-1-11-6-7-2-5-1v-2l-8-5-7-4-4-4-1-5v-8l-1-5 2-6h-2l1-3 4 5 6 9 7 8 11 7 13 8 31 15 13 10 4 5 3 11v15l-5 12-7 8-11 6h-26l-12-4-6-4-7-7-6-9-5-8-7-15-2 6-1 34 9 1 5 3 18 5 19 2h15l23-3 15-6 13-8 9-11 4-10 2-7v-19l-2-10-7-14-1-3-4-2-3-3v-2l-5-2-6-5-16-8-24-11-12-8-9-8-5-11-1-5v-11l4-10z" fill="#FEFCF0"/>
<path transform="translate(1013,77)" d="m0 0h3v32l-2 34-5 33-3 12h-1l-1-6-2-29-4-41-7 1-33 11h-7l-6-3-11-8-6-4-1-4 11-4 24-9 24-8 22-6z" fill="#040304"/>
<path transform="translate(795,694)" d="m0 0 11 1 4 4-2 3 12 3v1h1 27l6 2 8 1 5 2 9 3 5 3 9 3 3 3-3 10-3 6 1 13 1 1-1 10-3 5-5-2-7-6-5-6-6-5-2-4 6 1v-3l-2-1-4-8-1-8h-1v7l-2-1-5-10-3-4-4-1-18-1-1 2-2 1-5 6-11 2v-3l3-4h-2l-1 3-5 4v3l-2 4-3 5-3 15-2 4-3-1-1 8-3 17-2 6-4 24-1 4v14l2 13 2 4 4 16 4 17 4 7v2l4 1 7 5 6 2 4 1 4 2v2l-9-2-12-6-4-3-5-3-2-7-4-8-5-17-3-13-2-26v-28l3-22 5-17 8-16 8-9 10-6 10-4 5-1h22l10 3 8 5 12 22 2 7 4 2 5 4-2-36-17-7-18-4h-36l-21 4-13 5-8 4-13 10-9 8-10 15-5 11-4 13-2-1-1-12 5-10 6-8 2-1v-2l4-4 1-4 6-9 16-6 7-5 5-2 4-2 3-3 9-3h3v-4l-7-3v-5z" fill="#FEFCF0"/>
<path transform="translate(688,979)" d="m0 0h9l4 2 7 2 6 2 7 1-1 8h2v3h2l-1 9v13l-1 4v8l-2 4-2-1-1-9-2-5-3-1v-6h-2l-1-4-7-1v-2h-3v24l-4-1-2-5h-3l-2-4-4-2-6-12-1-1h-7l-1 6-6 7-8 3-8-1-8-5-3-5-2-7 1-7 4-6 3-3 5-2h11l6 3 5 6v2h2l1 3 4-1 1-3 2-4h6l3 3 1 13 7 3-1-22-3-1z" fill="#FBF6E7"/>
<path transform="translate(1015,26)" d="m0 0h17l20 2 27 7 27 11 12 7-4 1-14-5-18-5-21-4-8-1h-34l-20 3-17 6-15 10-7 6-9 11-19 3-4 1h-8v-3l14-15 8-7 14-10 10-5 20-8 12-3z" fill="#040304"/>
<path transform="translate(887,91)" d="m0 0v3l-9 10-44 44-7 8-34 34-1 4-1 16-9 8-13 9-14 10-10 7-17 12-16 10-2-1 13-10 15-13 8-8 11-9 13-12 2-5v-10l2-13 12-10 14-11 15-13 11-9 13-11 14-11 17-14 11-9z" fill="#040304"/>
<path transform="translate(453,717)" d="m0 0 7 1 3 1 1 4 1 41v131l-8 3-5 2-1 3h73l-3-4 1-2 3 2 15 1 7-4 7-1 3-4v-31l-2-10-2-2-2-1v-16l2-10 1-27v-5h-2l-1 41-2 3-2-2-1-7 1-42 1-9 2 1 1-14 1-8 4-1 1 3h2l-2-9-2-8h-3l-2-4-2 3-1-3-1-11 7 6 6 11 2 14v97l-1 46-7 2-8 1-3 3 32 1 11-1h3l1 2-7 1h-7l-9 1-12-1h-105l-1-4 4-5 1-7 3-1 4-12 1-10 1-1 1-18v-65l-1-53-1-7-8-4z" fill="#FEFCF0"/>
<path transform="translate(942,21)" d="m0 0h7l-1 2-13 3-35 14-14 9-10 9-9 9-9 14-8 24-15 12-6 4h-2l1-10 7-20 8-15 6-8 9-10 14-11 14-9 17-7 24-7z" fill="#040304"/>
<path transform="translate(726,780)" d="m0 0h2l-2 19v10l3 26 2 6 2 8 8 16 7 11 9 11 16 9 20 7 18 4h27l15-1 21-6 15-8 1-5v-46l2-21 1-4 2 1-2 11v60l-1 10 1 1v8l-1 1h-5l-3-4-3-1v2l-6 2-2 2-9 1-14-1-17 1h-43l-7 2h-15l-7-2v-6l3-1-3-5-6-4-10-9-2-4-5-5-8-11-6-12v-5l2 3v2h2l-1-20h-2v10h-1l-1-10 2-6-1-12v-30z" fill="#FEFCF0"/>
<path transform="translate(686,709)" d="m0 0 14 1 9 2v3l-9 6h-4l-1 33v59l1 18v75l-1 2-8 1-12-3-3-3v-3h-2v-2l-5-2-8-8-4-6-9-3v-6l-5-4-2-1-2-7-6-9-7-13-10-13-4-8-4-3-1-4-3-3h3v-2h-2v-2h-2l-5-6-8-16 1-2 12 17 12 15 12 18 9 12 11 13 10 14 22 33h6l12 3v-171l1-14 4-2 6-2 3-2-9-1h-14l-14 1v2l2 1h-5l-3-2 1-3 17-1z" fill="#FEFCF0"/>
<path transform="translate(1226,982)" d="m0 0h1v18l4 1 15-4 3-5 4-1v-6l4-1 19 1 3 4v14l-2 7-1 10-3-1 1-9 2-10-1-12h-18v16l15 1 1 3h-15v5h2v5l-4 6h-2l-2-3v-3l-10 1h-5l-2 1h-9l-7 1-12-1v-2l-5-1-4-4-1-4v-8l4-11 4-6 3-1 9 1-1 6-3 1v5h-5l-6-2v3h-2v12l2 5 9 2h11l2 1v-10l-4 1h-15l4-3 14-2v-14l-4-3v-2z" fill="#FEFCF0"/>
<path transform="translate(1376,720)" d="m0 0h2l-2 5-1 1-3 14-4 25-2 15-2 21v31l2 16 5 13 1 13-2 4-2-2 1 6 3 6 9 7 11 4 3 1 20-1 7-3 5-2v-2h2l1-4 2 1v3l-12 8-12 3h-12l-13-3-9-6-7-8-4-11-5-25-1-16v-49l2-19 5-25 6-14z" fill="#FEFCF0"/>
<path transform="translate(1565,795)" d="m0 0 5 5 12 18 10 14v2h2l4 6 13 17 14 19 10 14 9 12 2 2h15l-1-55 1-6h1l1 14 3 8v20h-2l-1 16 3-1 1-2 3 5-3 3-8 1-6 2h-6l-2-1v-2l-4-1-17-17-6-9-10-6-5-10-11-16-7-15-7-11-2-1v-6l-2-1-2-3-5-5-1-3h2l-3-5z" fill="#FEFCF0"/>
<path transform="translate(944,977)" d="m0 0h55l2 1 1 3v35l21-1 2-1v6l-9 2-17-1-1-1-1-40-13-1h-27l-7-1-1 2v-2h-2v6l18 1 1 3h-18l-1 3v9l20 1v-16l3 1v15l1 4v14l-27 1-2-1v-32l-1-4z" fill="#FEFCF0"/>
<path transform="translate(1507,712)" d="m0 0 2 2 6 8 1 4h2l9 16 1 6v142l-2 6-16 4-3-1 11-4h2l2-8-1-4 1-15 1-31 1-1v-47l-3-11-1-18 2-11-2-10-5-5-2-4v-3h-2l-5-11-1-3z" fill="#FEFCF0"/>
<path transform="translate(1797,776)" d="m0 0 4 1 5 2 2 3v41l4 2 2 3v7l-3 1h-5l-5 4-3-1-1-5 1-3-3-6-1-9h-2l-1-7-37 1v78l3 6 1 1h58l3-4h3l1-7 4-7 2-6 1 4-5 12-2 9-7 2h-65l1-90 2-1h36l2 1 3 7 3 5 3 8 4 1v-40l1-5-8 2-2 8-2 5v3l-3 1h-34l1-2 15-1h17l4-10 1-10z" fill="#FEFCF0"/>
<path transform="translate(893,977)" d="m0 0h2l2 5 2 2 17 1-3 3h-13l-4 1-1 16h19l1-2 1 3-2 1h-19v9l-1 5-2-1v-12l1-2-1-8v-10l-6 3-4 1-7-3-2 5 1 11-3 3-4 1v12l-2-3-2-7h-17v-2l14-1-3-9-4-10-2 3-9 17v8l-3 2-5-6v-5l5-4 4-4 4-7 1-6h-2l-1-3 6-4h2v2h2l8 15 4 1 1-9 3-6v-3l5-2 4 2h9l1-2z" fill="#FEFBEE"/>
<path transform="translate(319,806)" d="m0 0 4 4 5 9 10 14 7 9v2l-4 2 6 18-1 6-1 1h-8l-4-2-4-8-3-15v-8l-1-3-4-2-1 62h-1z" fill="#FEFCF0"/>
<path transform="translate(899,984)" d="m0 0h23l1 5-2 9-1 19-2 5-5 3-4-1-6-8-7-2-1-1v-6l21-1-1-2-1 1-9 1-10-1v-16l5-2h13l2-1-16-1z" fill="#FEFBEF"/>
<path transform="translate(1010,698)" d="m0 0 8 1-1 4-3 5 7 1 10-1 6-2h24l6 1 16 3 1 2h-6l-7-2-9-1h-18l-14 2-13 4-13 7-9 7-8 12-3 11v32l-2-1-3-12-1-10v-8l2-5 2-11 6-10h2l2-4 5-9-1-3 7-10z" fill="#FEFCF1"/>
<path transform="translate(777,984)" d="m0 0 3 2v5h2l1 5h5l4-4v7h-2l1 9h5l6-10 4-8 3-3 1-3h2l1 12v25l-3 2-4-1-1-2h-7l-7 6-5-1-2-5h2v-8l-2-9-1-5-3-1v18l-2 3-2-6z" fill="#FEFBEF"/>
<path transform="translate(697,985)" d="m0 0h17l7 1-1 8h2v3h2l-1 9v13l-1 4v8l-2 4-2-1-1-9-2-5-3-1v-6h-2l-1-4-7-1v-2l-3 1-1 8h-1z" fill="#FEFBEE"/>
<path transform="translate(1317,984)" d="m0 0h2v2h7l4 16-1 2 6 2 1 5-1 1 1 11-6-1-2-9h-15l-2 10-6 1-3-2v-8h-2l1-4 3-3h2l2-6 6-11z" fill="#FEFBEF"/>
<path transform="translate(521,716)" d="m0 0v3l-5 6 4 6 1 3v12l-1 17-5 13-2 4h-3l1 5v69l1 36 2 5 6 2-3 1-6-1-1-5-1-30v-130l2-10 6-4z" fill="#FEFCF0"/>
<path transform="translate(650,987)" d="m0 0 9 1 5 4 3 6v9l-3 6-5 4h-12l-6-4-3-5-1-9 3-6 8-5z" fill="#FDFCFB"/>
<path transform="translate(875,988)" d="m0 0 7 3 4-1 3-2h3l2 19-1 1v12l2-5h1l-1 8-7-1-3-1-11-1-6-1v-6l-2-4 6-3 1-1-1-11 2-5z" fill="#FDFDFD"/>
<path transform="translate(847,798)" d="m0 0h6l-4 2-8 3-4 4 6-1 10-6 25-1v2l7 1 10 4h3l5 2 1 2-7 1-74 1h-3l3-3 7-4 9-3z" fill="#FEFCF0"/>
<path transform="translate(1359,980)" d="m0 0 4 4 6 9v2l3 1 3 3 1 2 5-3 1-2 2-14 1-2h2l1 2v43l-5-1-6-7-5-12-7-10-4-4v21l-2 3-1-2-1-10-2-2v-7l1-2v-9z" fill="#FEFCF0"/>
<path transform="translate(1698,719)" d="m0 0h9l1 19v157l-3 3h-8l2-1 1-10-1-7 2-12 1-14 1-5 2-11 1-3v-91l-1-20-2-3-5-1z" fill="#FFFCF0"/>
<path transform="translate(1164,900)" d="m0 0h8l-4 2 29 1h30l34-1 4-1 14 3v2l-23-1-28 1 3 2v2l-5 1h-28l-13-1v-2h-5l-8-3h-7l-9 2h-4l1-3 9-2z" fill="#FEFCF0"/>
<path transform="translate(984,989)" d="m0 0 8 3 1-3h5l1 32-11-1-5-3-2-4v-2h-3l1-4 2 1-2-7 1-6z" fill="#FFFCF0"/>
<path transform="translate(1641,717)" d="m0 0 9 1 3 3 1 9 1 61v51l-4-2-8-11-16-21-6-8v-2h3l6 9 5 5v4l4 2 4 6 6 6h4v-11l-1-25v-5l-1-3 1-3v-7h-1v-29l-1-12-4-11-5-5z" fill="#FEFCF0"/>
<path transform="translate(1259,987)" d="m0 0h16l2 7-1 13-3 12h2l1-9 2-2v14l-4 2-5-7-3-7-8-2v-1h12l3 1-1-2-15-1-1-1v-14z" fill="#FEFCF1"/>
<path transform="translate(1047,983)" d="m0 0 24 1v2l-7 3-5 4-7 1-5 6h19l2 1v2h-23l1 6v7l27 1-2 2h-31v-2l2-1-1-6 1-6h-2v-4l2-1v-11l-8-2v-2z" fill="#FFFCF0"/>
<path transform="translate(410,721)" d="m0 0 3 3 3 9v9l-4 4-7 1-8 1-4-4-1-3-24 24-2-1 42-42z" fill="#FAF3E2"/>
<path transform="translate(828,814)" d="m0 0 8 1 9 3v2l-2 2 4 4 1 32v40l-1 3-11 2h-16v-2l19-2 2-5 1-2-2-9 2-2-2-2 3-3 1-41-2-7-5-6-2-4-7-3z" fill="#FEFCF0"/>
<path transform="translate(947,984)" d="m0 0h23l2 2v10l1 14 1 3-1 2 6 2 1 4-3 1-3-3-7 3-21-2v-1h25l-1-17-1-3v-13l-2-1v16h-20l-1-1v-9l2-4h17v-2h-18z" fill="#FFFCF0"/>
<path transform="translate(1126,982)" d="m0 0 3 4h-2l-1 4h-2v3l3 1 3 3 4-2 1-5 1-4 3-1 1 2h-2l-1 8-3 4h-2v3l4 2 4 4 5-2v3l-2 1v3l5 3v2l-5-1v-2l-2 1 1 3h-23l-1-2 2-11 2-3h2v-6l-3-3 1-5zm2 22-5 3 1 3 3 2 6-1v-3l-3-4z" fill="#FFFCF0"/>
<path transform="translate(1836,853)" d="m0 0h3l1 28-1 22-1 2h-66l-35 1-24 1-17-3v-1h141v-46l-4 10-2 1 3-12z" fill="#FFFCF0"/>
<path transform="translate(1488,984)" d="m0 0 29 1v1h-5v2h-19l1 7v5l23 1v2l-22 2-1 11h13l11 1 3 2h-34l1-24z" fill="#FFFCF0"/>
<path transform="translate(275,749)" d="m0 0h1v146l-2 2-14 3v3l2 1h-3v-5l5-5 2-1 1-4 5-15 2-42z" fill="#FFFCF0"/>
<path transform="translate(590,984)" d="m0 0 26 1v1h-21v14l15 1 4 2-1 3h-18v15l-1 1h-5l-1-1-1-12-4-4 4-4 1-13z" fill="#F9F2DF"/>
<path transform="translate(319,776)" d="m0 0 1 3h20l8-2-5 6-8 7-11 11-5 2z" fill="#FEFCF0"/>
<path transform="translate(683,720)" d="m0 0 3 1 2 7v111l-2 2-8-10-14-19 1-2 9 11v2l4 2 3 5-2-5-4-6 5 2h6v-46l-1-4v-15h1l-1-9 1-6h-1v-12l-2-7z" fill="#FEFCF0"/>
<path transform="translate(975,1031)" d="m0 0h25l4 2h10l-1 2h-6l-1 2h-74l-2-2 25-3z" fill="#FFFCF0"/>
<path transform="translate(1317,984)" d="m0 0h2v2h7l4 16-1 2 6 2 1 5-1 1v5l-1 4h-2l-3-11-6 1h-12v-2h16l-3-7v-3h-2l-1-6-6 1-7 13-3 11-2-4 3-9 7-14 3-5z" fill="#F4EEDE"/>
<path transform="translate(1432,730)" d="m0 0 3 4 4 10 4 19v7l-2-3-2 5h-1l-3-13-8-15-2-11z" fill="#FEFCF0"/>
<path transform="translate(1414,979)" d="m0 0 3 1 1 15-1 30h-3l-1-8-5-1-4-4-8-3-1-5 5-5 5 7 2 1v2h5l1-29z" fill="#F1E4C7"/>
<path transform="translate(647,985)" d="m0 0h11l6 3 5 6 1 2v13l-6 8-9 4-8-1-8-5-3-5-2-7 1-7 4-6 3-3zm3 2-9 5-3 4-1 7 3 9 5 4 2 1h12l6-5 2-5v-9l-4-7-4-3z" fill="#BE923A"/>
<path transform="translate(1553,692)" d="m0 0 4 2 2 3v6l-9 5-1 3 9 1v1h-48v-1l6-1-12-3v-1l17-1 1 1h12l20-5h2l-1-7z" fill="#FFFCF0"/>
<path transform="translate(947 1e3)" d="m0 0h21l1 7v7h-23z" fill="#FDFCFC"/>
<path transform="translate(945,984)" d="m0 0 20 1 1 3h-18l-1 3v9l20 1v-16l3 1v15l1 4v14l-27 1-1-3 1-32zm2 19-1 14h23v-10l-1-4z" fill="#BF933B"/>
<path transform="translate(1533,694)" d="m0 0 14 1 1 3-6 4-4 1h-20l-12 2-3-2v-4l2-1 15-2z" fill="#FFFCF0"/>
<path transform="translate(411,715)" d="m0 0 4 1-5 6-8 7-35 35-7 8-8 7-2-4h2l2-4 8-8h2l2-4 5-4 4-2 11-12 5-6h2l2-5 7-10h3z" fill="#050404"/>
<path transform="translate(1359,980)" d="m0 0 4 4 6 9v2l3 1 3 5h-2l7 10 2 2-2 5-2-3-6-10-7-10-4-4v21l-2 3-1-2-1-10-2-2v-7l1-2v-9z" fill="#FEFCF0"/>
<path transform="translate(852,988)" d="m0 0 3 3 6 15-1 3h-14v2l17-1 1 2h-22l-1-3 9-17z" fill="#FEFCF1"/>
<path transform="translate(1255,984)" d="m0 0 21 1 3 4v14l-2 7-1 10-3-1 1-9 2-10-1-12h-18v16l15 1 1 3h-15l-1 11-3 1v-35z" fill="#C1943B"/>
<path transform="translate(371,881)" d="m0 0 4 4 3 5v5l-8 5-1 3h18l53 1-1-4 6 2v2l-4 1h-70l-4-2-1-6 2-6h2v-2l-2-1v-2l-1-4z" fill="#FEFCF0"/>
<path transform="translate(906,988)" d="m0 0h4l2 3v13h-16v-14l1-1z" fill="#FDFDFD"/>
<path transform="translate(567,754)" d="m0 0h2l6 9 5 7-1 2-5-6-5-3-1 2 5 1 3 5-5-2-3-1 1 92 1 35 4 2-6-1-1-18z" fill="#FFFCF0"/>
<path transform="translate(1263,988)" d="m0 0h8l3 3v7l-1 4 1 2h-16v-14z" fill="#FDFDFD"/>
<path transform="translate(1558,713)" d="m0 0 4 2 3 3v2l4 2v2l4 1 4 9v2h2l10 13v2h2l3 6 1 1 2 3 2 4 12 17-1 2-24-32-14-19-7-9-7-10z" fill="#FEFCF0"/>
<path transform="translate(1534,753)" d="m0 0 3 3 9 13-2 1-1-2-7-1v49l-1 73h-1z" fill="#FFFCF0"/>
<path transform="translate(1207,983)" d="m0 0 10 1-1 6-3 1v5h-5l-6-2v3h-2v12l2 5 9 2 7 1 1 2h-12l-7-3-3-7v-8l4-11 4-6z" fill="#FAF3E2"/>
<path transform="translate(1441,854)" d="m0 0h1l-1 12-3 16-7 3v-14l1-8 1-4 6-3h2z" fill="#FFFCF0"/>
<path transform="translate(1128 1e3)" d="m0 0 4 2 2 4-3 2-5-1-3-3 2-3zm-6 4m24-1 1 4 3 5-2 4-10 1h-20l-2-4v-3l-4-1v-4l4 1 3-1 1 3-1 6 23 1-2-5 3 1 1 2 4 1v-2l-5-2-1-4z" fill="#FFFCF0"/>
<path transform="translate(709,989)" d="m0 0 5 1 4 4v8l-1 2h-10v-3h-2v3h-5l-1-7 1-6 2 1v3h2l1 2 2-6h2z" fill="#FDFCFC"/>
<path transform="translate(1226,982)" d="m0 0h1v18l7 1-1 2h-6l1 1v3l-1 9-3 3-1-2 1-10-4 1h-15l4-3 14-2v-14l-4-3v-2z" fill="#F8F2E1"/>
<path transform="translate(948,989)" d="m0 0h13l3 1v10h-18v-9h2z" fill="#FDFCFC"/>
<path transform="translate(891,1010)" d="m0 0h1l1 10 2-5h1l-1 8-7-1-3-1-8-1-5-5 1-3 2-1h13z" fill="#FFFCF0"/>
<path transform="translate(394,712)" d="m0 0 34 1 1 2-13 3h-3l1-2-5 1-6 5-2-3-13-2-1-4z" fill="#C69E4E"/>
<path transform="translate(1488 1e3)" d="m0 0h22v1l-15 1-1 11h13l11 1 3 2h-34z" fill="#CEC2A6"/>
<path transform="translate(535,705)" d="m0 0h9l12 5 1 3h-18l-1 2h-7l-2-1 1-6z" fill="#FEFCF1"/>
<path transform="translate(1361,991)" d="m0 0 4 2 6 11h-3v-2l-5 3-1 20h-5l-1-2v-7l-1-4 2-9h1l1 10 1-4z" fill="#FFFCF0"/>
<path transform="translate(1318,992)" d="m0 0 3 1 1 6h2l1 9h-15l1-6 4-9z" fill="#FCFBF8"/>
<path transform="translate(1126,982)" d="m0 0 3 4h-2l-1 4h-2v3l3 1 3 3 4-2 1-5 1-4 3-1 1 2h-2l-1 8-3 4h-2v3l4 2 4 4 5-2v3l-2 1v3l5 3v2l-5-1v-2l-4-1v-4l-4-2-6-7-8-7 1-5z" fill="#C1943B"/>
<path transform="translate(894,985)" d="m0 0h22l-3 3h-13l-4 1-1 16h19l1-2 1 3-2 1h-19v9l-1 5-2-1v-12l1-2v-19z" fill="#9D7830"/>
<path transform="translate(1045,988)" d="m0 0h1v8l-1 5h23v2h-23l1 6v7l27 1-2 2h-31v-2l2-1v-15h2v-11z" fill="#C1943B"/>
<path transform="translate(1138,987)" d="m0 0 1 4-1 5 10 1 1 1v6l-4 3-5 2-8-7v-3h2l2-4z" fill="#FDFCFC"/>
<path transform="translate(1779,718)" d="m0 0h14v1l-8 1-26 1-6-1 1 62 2 4-2 3-1 12 3-1 1 2h-5v-83z" fill="#FFFCF0"/>
<path transform="translate(1794,719)" d="m0 0h17l9 15 12 24 2 1-1-4 2-1v7l-4-1-2-1-7-15-4-4-3-4-1-7-4-6v-3h-16z" fill="#FFFCF0"/>
<path transform="translate(1751,710)" d="m0 0h15l2 2-12 1-61 1v-2l3-1h30z" fill="#FFFCF0"/>
<path transform="translate(852,985)" d="m0 0h2l-1 4-2 3-9 17v8l-3 2-5-6v-5l5-4 4-4 8-14z" fill="#F7EED9"/>
<path transform="translate(999,983)" d="m0 0h1l2 34h21v2l-25 1v-31z" fill="#C1943B"/>
<path transform="translate(697,985)" d="m0 0h17l7 1v8l1 5-1 5-2-4-1-10-1-2-19-1v18h19v2h-18l-1 8h-1z" fill="#7D6027"/>
<path transform="translate(1127,978)" d="m0 0h3v2h-2l1 4 9 1-2 2v6l-3 4-4 1-5-5v-3l2-1 2-4-1-3h-2v-3z" fill="#FDFCF7"/>
<path transform="translate(549,730)" d="m0 0 2 3 1 4 3-1 2 3 1 9 1 1v5h-2l-2-2h-2l-1 12-1 4h-1v-11l1-15-2-6z" fill="#FDFDFD"/>
<path transform="translate(1321,977)" d="m0 0h9l4 2-1 8 4 7v5l-4 1-3-5-1-8 1-4-4-1-2-1v-2l-7 1v-2z" fill="#FFFCF0"/>
<path transform="translate(700,986)" d="m0 0 18 1 1 3v8l-2-4-3-3-5-2v2l-2 2-1 5-2-1v-2h-2l-1-3-2 13h-1v-18z" fill="#F6EDD6"/>
<path transform="translate(1047,983)" d="m0 0 24 1v2l-5 1h-21l-1 14h-2l1 2v10l-2-1 1-8h-2v-4l2-1v-11l-8-2v-2z" fill="#FFFCF0"/>
<path transform="translate(551,782)" d="m0 0h1v7h2l1 5-1 27-2 10-2 1z" fill="#FDFDFD"/>
<path transform="translate(1045,714)" d="m0 0h16l6 1v1l-18 1v1l2 1-6 3v-2l-5 1-1 3-6 3 1-4 2-4-2-1 6-3z" fill="#FEFCF0"/>
<path transform="translate(1392,714)" d="m0 0h18l4 2-12 4-3 2h-7l-2-3v-3l-3-1z" fill="#FEFCF0"/>
<path transform="translate(944 1e3)" d="m0 0h3v11l-1 3h23l-1-8 3-1v11l-27 1-1-3z" fill="#BD913A"/>
<path transform="translate(1452,983)" d="m0 0 3 1-1 35-2-3-1-27-1-1h-8l1-4z" fill="#806F4C"/>
<path transform="translate(947 1e3)" d="m0 0h21l1 7v7h-23l1-5 1 4 17-1 1-1-2-7-5-1-8-1-3-1-1 2z" fill="#FEFCF0"/>
<path transform="translate(810,984)" d="m0 0h2l1 12v25l-2 1-1-6-1-23 1-3-3-1z" fill="#C1943C"/>
<path transform="translate(847,991)" d="m0 0 1 2-6 10-5 2-1 3h-2v-13l1 4h3l1-7 6 1z" fill="#FEFCF2"/>
<path transform="translate(390,717)" d="m0 0 12 1-1 5-7 10-3 3-2-3 2-1 1-9z" fill="#F5ECD5"/>
<path transform="translate(1204,986)" d="m0 0 4 1-4 2-3 8-1 4v8l2 5 9 2 7 1 1 2h-12l-7-3-3-7v-8l4-11z" fill="#92702F"/>
<path transform="translate(688,979)" d="m0 0h9l4 2 7 2 4 2h-15l-1 4-4-2z" fill="#FDF8EA"/>
<path transform="translate(361,781)" d="m0 0 1 3-2 3-1 6 3 5-1 3-9-13-2-6h7z" fill="#FEFCF0"/>
<path transform="translate(853,798)" d="m0 0h13l6 1v1l-19 1-12 7h-11v-1l7-1 3-1 1-3 8-3z" fill="#FDFDFD"/>
<path transform="translate(1317,984)" d="m0 0h2l1 4 2 4-1 3v-2l-6 1-7 13-3 11-2-4 3-9 7-14 3-5z" fill="#AF9050"/>
<path transform="translate(1385,983)" d="m0 0 2 1v38l-2-3-1-6v-23z" fill="#C1943B"/>
<path transform="translate(884,995)" d="m0 0 9 3 1 9-3 1-5-1-2-4z" fill="#FEFAED"/>
<path transform="translate(854,989)" d="m0 0 3 3 6 13 1 4 2 1 1 11-2-3-2-7h-17v-2l14-1-3-9z" fill="#A57E33"/>
<path transform="translate(1068 1e3)" d="m0 0 1 3-21 2-1 9 25 1v1h-26l-1-1v-13h23z" fill="#FEFAEE"/>
<path transform="translate(777,984)" d="m0 0 3 2v5h2v3h-2v21l-2 3-2-6z" fill="#B18836"/>
<path transform="translate(1641,717)" d="m0 0 9 1 3 3v9l-2 4-1-7-3-1-6-7z" fill="#FEFCF3"/>
<path transform="translate(1823,710)" d="m0 0 9 1 3 2-1 5-3 1 1-6-59-1v-1z" fill="#FEFCF0"/>
<path transform="translate(1359,982)" d="m0 0 2 1v29l-2 3-1-2v-22z" fill="#C1943B"/>
<path transform="translate(841,689)" d="m0 0h9l19 5 6 3-2 1-9-2-3 1-8-2-1-3-11-2z" fill="#FEFCF0"/>
<path transform="translate(1020,749)" d="m0 0 5 4 2 5 6 2 9 9h-3l-6-5h-5v-2h-2v-2h-2l-4-7z" fill="#FDFDFD"/>
<path transform="translate(894,985)" d="m0 0h22l-3 3h-13l-4 1-1 16h-1l-1-8v-10z" fill="#C1943B"/>
<path transform="translate(597,721)" d="m0 0 3 1 12 16 4 5 7 11 1 4-4-5-7-9-9-12-7-9z" fill="#FEFCF0"/>
<path transform="translate(1085,711)" d="m0 0 17 5 5 1-1 4v25h-1l-1-26-9-3-11-4z" fill="#FEFCF0"/>
<path transform="translate(1226 1e3)" d="m0 0h15l1 4-2 2h-10l-2-2z" fill="#FDFDFD"/>
<path transform="translate(1443,837)" d="m0 0h1v10l-1 7-2-3-5 5-3 2 2-6z" fill="#FEFCF0"/>
<path transform="translate(588,795)" d="m0 0 4 2 6 8-5-2-4-1-5 1-2-2v-4h6z" fill="#FFFCF0"/>
<path transform="translate(1045,988)" d="m0 0h1v8l-1 5h23v2l-24 1-2-1v-2h2v-11z" fill="#C1943B"/>
<path transform="translate(1324,999)" d="m0 0 2 1 3 6v3h2l3 12h-2l-3-11-6 1h-12v-2h16l-3-7z" fill="#AB8334"/>
<path transform="translate(1362,989)" d="m0 0h2l7 10v2h2l7 10 2 2-2 5-2-3-6-10-7-10-3-4z" fill="#C1943B"/>
<path transform="translate(1808,823)" d="m0 0 4 2 2 3v7l-3 1h-5l-5 4-3-1-1-5 2-1 1 2 4-1 3-2 5 1-1-6z" fill="#FFFCF0"/>
<path transform="translate(1119,1012)" d="m0 0 3 3 3 1h11l4-1 2 4h-23l-1-2z" fill="#C1943B"/>
<path transform="translate(356,881)" d="m0 0 8 2-1 4-3 2h-7v-6z" fill="#FFFCF0"/>
<path transform="translate(813,998)" d="m0 0h1l1 15-1 18-2 3-2-6v-6l2-1z" fill="#FFFCF0"/>
<path transform="translate(848,998)" d="m0 0 4 1 1 8-1 1h-8v-5l3-3z" fill="#FDFCFC"/>
<path transform="translate(852,985)" d="m0 0h2l-1 4-2 3-11 20-2-2 11-21z" fill="#C1943B"/>
<path transform="translate(1505,902)" d="m0 0h48l1 3-43-1-6-1z" fill="#FFFCF0"/>
<path transform="translate(1042,1013)" d="m0 0 1 3-3 1v2l31-1 5-1-1 3h-37l-2-1v-2l5-3z" fill="#FFFCF0"/>
<path transform="translate(1117,719)" d="m0 0 5 1 2 4-4 4-5-1v-6z" fill="#FFFCF0"/>
<path transform="translate(1141,997)" d="m0 0h7l1 1v6l-4 3-5 2-2-3 6-2v-4z" fill="#FFFCF0"/>
<path transform="translate(775,978)" d="m0 0 4 1 1 7h-2l-1 21-2-4v-19h-1v-5z" fill="#FFFCF0"/>
<path transform="translate(1091,740)" d="m0 0 3 4 8 14 1-1 1-10h2l-1 14h-4l-5-9-4-6-2-5z" fill="#FFFCF0"/>
<path transform="translate(1146,1007)" d="m0 0 1 4 3 5-2 4h-8l2-1-2-5 3 1 1 2 4 1v-2l-5-2-1-4z" fill="#FFFCF0"/>
<path transform="translate(1488 1e3)" d="m0 0h29v2l-28 1z" fill="#A68033"/>
<path transform="translate(806,990)" d="m0 0 1 3-8 16-4 6h-2v-5l5-5z" fill="#C1943B"/>
<path transform="translate(384,740)" d="m0 0 3 1-5 5-9 10-3-1 6-8h2v-2z" fill="#BD913A"/>
<path transform="translate(549,736)" d="m0 0 2 2 1 5-2 26-2-1v-31z" fill="#FFFCF0"/>
<path transform="translate(384,832)" d="m0 0 7 6 5 3 2 7-5-1-8-12z" fill="#FEFCF0"/>
<path transform="translate(995,806)" d="m0 0 3 3v3h2l4 6 5 5-5-2-8-6-2-6z" fill="#FDFDFD"/>
<path transform="translate(1490,984)" d="m0 0 27 1v1l-5 1-23 1z" fill="#C1943B"/>
<path transform="translate(670 1e3)" d="m0 0 2 4-3 7h-2l-1 4-6 1h-5l3-2 6-3 5-7z" fill="#FFFCF0"/>
<path transform="translate(1128 1e3)" d="m0 0 4 2 2 4-3 2-5-1-2-1 2-5z" fill="#FDFDFD"/>
<path transform="translate(1112,872)" d="m0 0h1l-1 9-3 6-6 3v-3l4-4 4-8z" fill="#FDFDFD"/>
<path transform="translate(782,840)" d="m0 0 4 5 1 2 1 13-2-2-4-11z" fill="#FFFCF0"/>
<path transform="translate(843 1e3)" d="m0 0 1 3h7v1h-5v2l17-1 1 2h-22l-1-3z" fill="#FCF7E8"/>
<path transform="translate(1634,698)" d="m0 0 5 1 1 4-4 4-3-2v-6z" fill="#FFFCF0"/>
<path transform="translate(1638,815)" d="m0 0 4 2 3 2 6 1-1 5-4-1-6-5z" fill="#FFFCF0"/>
<path transform="translate(321,782)" d="m0 0h8l2 2-6 3-1 2-4 1v-7z" fill="#FDFDFD"/>
<path transform="translate(265,717)" d="m0 0 10 2v21h-1v-18l-6-1-3-2z" fill="#FEFCF0"/>
<path transform="translate(1405,887)" d="m0 0h7l1 3-2 1h-11l-2-2z" fill="#FFFCF0"/>
<path transform="translate(415,713)" d="m0 0h13l1 2-13 3h-3z" fill="#C39843"/>
<path transform="translate(1080,114)" d="m0 0h37v1l-32 1-3 2z" fill="#F0E8D1"/>
<path transform="translate(1244,1006)" d="m0 0 4 2 1 5-2 2-4-1v-7z" fill="#FDFDFD"/>
<path transform="translate(808,979)" d="m0 0 4 1v4h-2l-1 4-3 2-1-5z" fill="#FEFCF0"/>
<path transform="translate(1380,707)" d="m0 0h9l7 1v1l-18 2-4-2z" fill="#FEFCF0"/>
<path transform="translate(1271,728)" d="m0 0 4 2 6 10 1 5-5-5-3-6-2-1z" fill="#FFFCF0"/>
<path transform="translate(1558,786)" d="m0 0 5 5 2 4h-6l-4-6 1-2 2 1z" fill="#FEFCF0"/>
<path transform="translate(1127,978)" d="m0 0h3v2h-2l1 4h4l1 3-1 1h-6v-4-2h-2v-3z" fill="#F8F1DD"/>
<path transform="translate(771,898)" d="m0 0 10 3 8 3-1 2-9-2-4-2v-2l-4-1z" fill="#FDFDFD"/>
<path transform="translate(1370,712)" d="m0 0 4 1-16 6-4 1 1-3 7-4z" fill="#FEFCF0"/>
<path transform="translate(1807,823)" d="m0 0 5 4 1 4-1 2-5-1z" fill="#FDFDFD"/>
<path transform="translate(559,757)" d="m0 0 1 4v24h-1l-1-10v-10l-1-4z" fill="#FDFDFD"/>
<path transform="translate(1414,716)" d="m0 0 6 1 8 6v3l-7-5-5-1v-3z" fill="#FEFCF1"/>
<path transform="translate(893,1007)" d="m0 0h2v9l-1 5-2-1v-12z" fill="#856629"/>
<path transform="translate(994 1e3)" d="m0 0h3v4l-3 2-1 5h-2l1-10z" fill="#FDFDFD"/>
<path transform="translate(784,998)" d="m0 0h2l3 3v-3l2 1v7l1 4h-2z" fill="#C1943B"/>
<path transform="translate(1062,707)" d="m0 0 11 1 10 2 1 2h-6l-7-2-9-1z" fill="#FFFCF0"/>
<path transform="translate(1138,987)" d="m0 0 1 4-1 5 3 1-7 4-2 1v-3h2l2-4z" fill="#FFFCF0"/>
<path transform="translate(854,989)" d="m0 0 3 3 5 11v3h-2l-6-15z" fill="#BB8F39"/>
<path transform="translate(590,984)" d="m0 0 26 1v1l-25 1z" fill="#C1943B"/>
<path transform="translate(793,977)" d="m0 0 4 1-2 6-3 4v-10z" fill="#FFFCF0"/>
<path transform="translate(1437,904)" d="m0 0 6 1v3l-8 1-1-4z" fill="#FDFCFC"/>
<path transform="translate(835,1015)" d="m0 0 5 3 1 4-3 2v-4l-5-1z" fill="#FDF8EA"/>
<path transform="translate(699 1e3)" d="m0 0 1 4 4-1 1-3 3 1v2l7 1v1h-16z" fill="#FFFCF0"/>
<path transform="translate(852,985)" d="m0 0h2l-1 4-2 3-3 5h-2l2-6z" fill="#AF8635"/>
<path transform="translate(829,978)" d="m0 0h9l-2 4-5 1z" fill="#FEFCF1"/>
<path transform="translate(866,1010)" d="m0 0 3 3v7l-2 5-3-3 2-4z" fill="#FFFCF0"/>
<path transform="translate(1043,985)" d="m0 0h25v1l-21 1-3 1z" fill="#C1943B"/>
<path transform="translate(1246,882)" d="m0 0h2l1 4h4v2l-4 1-4-2z" fill="#FFFCF0"/>
<path transform="translate(1033,760)" d="m0 0 4 2 10 8-3 1-10-9z" fill="#FFFCF0"/>
<path transform="translate(1352,719)" d="m0 0 2 2-12 9h-2v-2l5-2v-2l5-2v-2z" fill="#FFFCF0"/>
<path transform="translate(1155,883)" d="m0 0h2v2l2 1-2 5h-3v-7z" fill="#FEFCF0"/>
<path transform="translate(967,849)" d="m0 0h6l1 5-3 2-4-4z" fill="#FEFCF1"/>
<path transform="translate(1225 1e3)" d="m0 0 2 1v10l-3 3-1-2 1-2z" fill="#C1943B"/>
<path transform="translate(1125 1e3)" d="m0 0h2l-2 4-5 6-1-2 3-6z" fill="#C1943B"/>
<path transform="translate(791,992)" d="m0 0h1v7l-3-1v3l-3-1v-2l-2-1 5-2z" fill="#FFFCF0"/>
<path transform="translate(1045,988)" d="m0 0h1v13l1 2-3 1-2-1v-2h2v-11z" fill="#98742F"/>
<path transform="translate(513,753)" d="m0 0 1 4-1 10-2 1v-12z" fill="#FDFDFD"/>
<path transform="translate(1450 1e3)" d="m0 0h2v6l-2 2-2-4-2-1v-2z" fill="#FEFCF0"/>
<path transform="translate(1105,814)" d="m0 0 6 5 2 9-4-5-3-6z" fill="#FDFDFD"/>
<path transform="translate(682,994)" d="m0 0 3 1v5l-3 2-1-1v-6z" fill="#FDFDFD"/>
<path transform="translate(1047,988)" d="m0 0h14l-3 2h-7l-4 3z" fill="#FDFDFD"/>
<path transform="translate(1362,768)" d="m0 0 2 1v9l-2 5-1-4z" fill="#FDFDFD"/>
<path transform="translate(1300,748)" d="m0 0h2l4 10h-2l-4-4z" fill="#FFFCF0"/>
</svg>
